# xmcd
#
# Track frame offsets: 
#        150
#        8514
#        28947
#        57328
#        67224
#        78213
#        87408
#        106257
#        130841
#        162603
#        193532
#        223297
#        227005
#        261737
#        278929
#        283339
#        318642
#        338478
#        355348
#
# Disc length: 4777 seconds
#
# Revision: 0
# Processed by: cddbd v1.5PL3 Copyright (c) Steve Scherf et al.
# Submitted via: ExactAudioCopy v0.95a4
#
DISCID=2c12a713
DTITLE=Various Artist - If I Had My Way
DYEAR=2004
DGENRE=Gospel
TTITLE0=Intro
TTITLE1=Roy Book Binder Interview 
TTITLE2=Candyman
TTITLE3=It's Gonna Be Alright Someday
TTITLE4=Intro to Let Us Get Together
TTITLE5=Let Us Get Together
TTITLE6=The Preacher Picked Up The Guitar
TTITLE7=Brandon Ross Interview 
TTITLE8=Twelve Gates to the City
TTITLE9=Lord I Feel Just Like Going On 
TTITLE10=I Am The Light
TTITLE11=Brandon Ross Outro
TTITLE12=Ernie Hawkins Interview
TTITLE13=Slow Drag
TTITLE14=Intor to Gospel Tunes
TTITLE15=Gospel Tunes
TTITLE16=Maple Leaf Rag
TTITLE17=Cocaine Blues
TTITLE18=Ernie Hawkins Outro
EXTD="If I Had My Way" - The Blues, Gospel and Ragtime of Reverend Gary 
EXTD=Davis, recorded live at the New York Guitar Festival and broadcas
EXTD=t by WFUV 1/29/04. Jorma Kaukonen, Ernie Hawkins, Roy Book Binder
EXTD=and Brandon Ross live from Merkin Hall in New York City, with ho
EXTD=st John Platt. \n\n\n
EXTT0=
EXTT1=
EXTT2=
EXTT3=
EXTT4=
EXTT5=
EXTT6=
EXTT7=
EXTT8=
EXTT9=
EXTT10=
EXTT11=
EXTT12=
EXTT13=
EXTT14=
EXTT15=
EXTT16=
EXTT17=
EXTT18=
PLAYORDER=
